<mxfile host="65bd71144e">
    <diagram id="IQIimyv-XbWGa5Jo21gD" name="Page-1">
        <mxGraphModel dx="520" dy="312" grid="1" gridSize="10" guides="1" tooltips="1" connect="1" arrows="1" fold="1" page="1" pageScale="1" pageWidth="827" pageHeight="1169" math="0" shadow="0">
            <root>
                <mxCell id="0"/>
                <mxCell id="1" parent="0"/>
                <mxCell id="3" value="NAVBAR" style="rounded=0;whiteSpace=wrap;html=1;" parent="1" vertex="1">
                    <mxGeometry width="560" height="60" as="geometry"/>
                </mxCell>
                <mxCell id="4" value="&lt;font color=&quot;#cc0000&quot; size=&quot;1&quot;&gt;&lt;b style=&quot;background-color: rgb(0 , 0 , 0) ; font-size: 16px&quot;&gt;BILDE&lt;/b&gt;&lt;/font&gt;" style="rounded=1;whiteSpace=wrap;html=1;strokeWidth=2;fillWeight=4;hachureGap=8;hachureAngle=45;fillColor=#1ba1e2;sketch=1;" parent="1" vertex="1">
                    <mxGeometry x="40" y="80" width="480" height="150" as="geometry"/>
                </mxCell>
                <mxCell id="6" value="heading til siden" style="rounded=0;whiteSpace=wrap;html=1;" parent="1" vertex="1">
                    <mxGeometry x="40" y="240" width="480" height="70" as="geometry"/>
                </mxCell>
                <mxCell id="8" value="informasjon" style="rounded=0;whiteSpace=wrap;html=1;" parent="1" vertex="1">
                    <mxGeometry x="40" y="320" width="320" height="70" as="geometry"/>
                </mxCell>
                <mxCell id="10" value="&lt;font color=&quot;#cc0000&quot; size=&quot;1&quot;&gt;&lt;b style=&quot;background-color: rgb(0 , 0 , 0) ; font-size: 16px&quot;&gt;BILDE&lt;/b&gt;&lt;/font&gt;" style="rounded=1;whiteSpace=wrap;html=1;strokeWidth=2;fillWeight=4;hachureGap=8;hachureAngle=45;fillColor=#1ba1e2;sketch=1;" parent="1" vertex="1">
                    <mxGeometry x="370" y="320" width="150" height="70" as="geometry"/>
                </mxCell>
                <mxCell id="11" value="informasjon" style="rounded=0;whiteSpace=wrap;html=1;" parent="1" vertex="1">
                    <mxGeometry x="40" y="400" width="480" height="70" as="geometry"/>
                </mxCell>
                <mxCell id="12" value="Footer" style="rounded=0;whiteSpace=wrap;html=1;" parent="1" vertex="1">
                    <mxGeometry y="585" width="560" height="70" as="geometry"/>
                </mxCell>
                <mxCell id="14" value="&lt;font size=&quot;1&quot; color=&quot;#00ff00&quot;&gt;&lt;b style=&quot;background-color: rgb(0 , 0 , 0) ; font-size: 16px&quot;&gt;VIDEO&lt;/b&gt;&lt;/font&gt;" style="rounded=1;whiteSpace=wrap;html=1;strokeWidth=2;fillWeight=4;hachureGap=8;hachureAngle=45;fillColor=#1ba1e2;sketch=1;" vertex="1" parent="1">
                    <mxGeometry x="40" y="480" width="480" height="100" as="geometry"/>
                </mxCell>
            </root>
        </mxGraphModel>
    </diagram>
</mxfile>